<svg width="174" height="73" viewBox="0 0 174 73" fill="none" xmlns="http://www.w3.org/2000/svg">
<path d="M19.5042 21.9979C15.5788 22.0396 12.1544 23.1237 9.23077 25.2501C6.30718 27.3973 4.03782 30.3471 2.42269 34.0995C0.807564 37.852 0 42.1569 0 47.0142C0 51.8298 0.848454 56.0826 2.54536 59.7724C4.26271 63.4832 6.62407 66.3913 9.62944 68.4969C12.6348 70.6024 16.09 71.6552 19.9949 71.6552C22.8571 71.6552 25.3309 71.0923 27.4163 69.9666C29.5017 68.8617 31.2701 67.319 32.7217 65.3386C34.1937 63.3581 35.4306 61.0858 36.4324 58.5216H39.2538L40.3578 47.1393L46.4912 22.9986H39.7444L33.979 47.1393C33.6724 48.6611 33.2021 50.4331 32.5684 52.4552C31.9346 54.4773 31.0861 56.4474 30.023 58.3653C28.9599 60.2832 27.6003 61.8676 25.9443 63.1184C24.3087 64.39 22.3256 65.0259 19.9949 65.0259C17.5006 65.0259 15.2926 64.2545 13.3708 62.7119C11.449 61.1692 9.94633 59.0324 8.86276 56.3014C7.7792 53.5705 7.23741 50.4331 7.23741 46.8891C7.23741 43.4285 7.74853 40.3119 8.77076 37.5393C9.793 34.7875 11.2241 32.609 13.0641 31.0038C14.9042 29.4194 17.0509 28.6272 19.5042 28.6272C21.7736 28.6272 23.7465 29.2631 25.423 30.5347C27.0994 31.8272 28.5101 33.4429 29.655 35.3816C30.7999 37.3412 31.7199 39.3529 32.415 41.4168C33.1306 43.5015 33.6519 45.3256 33.979 46.8891L36.5551 58.9594L39.1311 71.0297H45.8778L40.3578 46.8891L39.2538 35.1315H36.8004C35.7373 32.5465 34.4084 30.2533 32.8137 28.252C31.2395 26.2715 29.3483 24.7289 27.1403 23.624C24.9527 22.5191 22.4074 21.9771 19.5042 21.9979Z" fill="black"/>
<path d="M97.8269 71.5151L90.3764 71.5151C92.5343 67.9971 90.3764 71.5151 106.938 42.009C108.067 39.2486 108.848 36.6328 109.281 34.1616C109.714 31.6905 109.954 29.1296 110.002 26.4792C110.106 20.661 109.269 16.1302 107.491 12.8866C105.692 9.64256 103.184 7.99177 99.9672 7.93419C97.1389 7.88357 94.8603 9.09302 93.1315 11.5625C91.3808 14.0532 90.4624 17.7012 90.3764 22.5066L90.1103 37.3752L84.0219 37.2662L84.288 22.3976C84.3717 17.7215 85.0688 13.7678 86.3792 10.5363C87.6681 7.3045 89.526 4.85888 91.953 3.19942C94.3796 1.56151 97.3093 0.773278 100.742 0.83472C104.477 0.901571 107.654 1.99309 110.273 4.1093C112.87 6.22512 114.835 9.23497 116.169 13.1389C117.503 17.0643 118.12 21.7744 118.022 27.2694C117.942 31.7515 117.293 36.0079 116.076 40.0386C97.8269 71.5151 100.225 67.8505 97.8269 71.5151ZM80.7533 71.5151L72.3751 71.5151C70.1097 67.7669 72.3751 71.5151 55.1273 38.9477C54.0556 34.8761 53.5598 30.5992 53.64 26.117C53.7384 20.6221 54.5241 15.9371 55.9973 12.0619C57.4701 8.20825 59.5528 5.27084 62.2454 3.2497C64.9164 1.22816 68.1195 0.250833 71.8546 0.317685C75.2874 0.379126 78.187 1.2717 80.5534 2.99539C82.9195 4.74063 84.6995 7.25137 85.8935 10.5276C87.0659 13.8035 87.6102 17.7795 87.5265 22.4555L87.2604 37.3242L81.172 37.2152L81.4381 22.3466C81.5241 17.5412 80.7369 13.8627 79.0764 11.311C77.4155 8.78079 75.1817 7.49058 72.375 7.44034C70.216 7.4017 68.3571 8.09055 66.7984 9.50688C65.218 10.9228 63.9932 12.9917 63.1237 15.7138C62.2327 18.4354 61.7525 21.7356 61.6831 25.6143C61.6357 28.2648 61.7841 30.8326 62.1284 33.3177C62.4726 35.8027 63.1704 38.445 64.2218 41.2445C65.2515 44.0436 78.7227 67.9221 80.7533 71.5151Z" fill="#AB3333"/>
<path d="M128.984 72.1171L128.933 64.448L161.219 16.5122L161.214 15.8306L129.658 16.0404L129.596 6.66699L172.518 6.38161L172.571 14.3916L141.181 61.9805L141.185 62.6622L173.938 62.4445L174 71.8178L128.984 72.1171Z" fill="black"/>
</svg>
